<svg width="128" height="128" viewBox="0 0 128 128" fill="none" xmlns="http://www.w3.org/2000/svg">
<rect width="128" height="128" rx="14" fill="white"/>
<path d="M38.4228 59.2751C38.4327 58.9854 38.5521 58.7103 38.7571 58.5054C38.962 58.3005 39.2371 58.181 39.5268 58.1711H42.8386C43.1283 58.181 43.4034 58.3005 43.6083 58.5054C43.8132 58.7103 43.9327 58.9854 43.9426 59.2751V80.3114C43.9327 80.6011 43.8132 80.8762 43.6083 81.0811C43.4034 81.286 43.1283 81.4055 42.8386 81.4154H39.5268C39.2371 81.4055 38.962 81.286 38.7571 81.0811C38.5521 80.8762 38.4327 80.6011 38.4228 80.3114V59.2751Z" fill="#002D33"/>
<path d="M63.7322 57.5927C66.1683 57.4981 68.5769 58.1348 70.6481 59.4209C72.7192 60.707 74.358 62.5835 75.3535 64.809C76.3489 67.0344 76.6555 69.5069 76.2338 71.9081C75.812 74.3092 74.6812 76.5292 72.9869 78.2822C71.2926 80.0352 69.1124 81.241 66.727 81.7443C64.3416 82.2476 61.8601 82.0253 59.602 81.1062C57.344 80.1871 55.4127 78.6132 54.0569 76.5871C52.701 74.5609 51.9826 72.1753 51.9942 69.7374C51.9605 66.5763 53.1736 63.5291 55.3706 61.256C57.5676 58.9828 60.5717 57.6667 63.7322 57.5927ZM63.7322 76.9995C64.6403 76.9543 65.5306 76.7306 66.3522 76.3411C67.1739 75.9516 67.9106 75.4039 68.5205 74.7295C69.1303 74.055 69.6012 73.267 69.9062 72.4104C70.2113 71.5538 70.3445 70.6455 70.2983 69.7374C70.3675 68.8329 70.2491 67.9239 69.9505 67.0673C69.6519 66.2107 69.1796 65.425 68.5631 64.7596C67.9466 64.0941 67.1993 63.5632 66.368 63.2001C65.5367 62.837 64.6393 62.6496 63.7322 62.6496C62.825 62.6496 61.9277 62.837 61.0963 63.2001C60.265 63.5632 59.5177 64.0941 58.9012 64.7596C58.2847 65.425 57.8124 66.2107 57.5138 67.0673C57.2152 67.9239 57.0968 68.8329 57.166 69.7374C57.1198 70.6455 57.253 71.5538 57.558 72.4104C57.8631 73.267 58.334 74.055 58.9438 74.7295C59.5537 75.4039 60.2904 75.9516 61.1121 76.3411C61.9337 76.7306 62.824 76.9543 63.7322 76.9995Z" fill="#002D33"/>
<path d="M81.8838 59.2775C81.8937 58.9878 82.0132 58.7127 82.2181 58.5078C82.423 58.3028 82.6981 58.1834 82.9878 58.1735H84.6149C84.8326 58.1681 85.0462 58.233 85.2241 58.3586C85.402 58.4842 85.5347 58.6637 85.6025 58.8707L86.2421 60.8458C87.2414 59.8227 88.4341 59.0083 89.7508 58.4498C91.0675 57.8914 92.4819 57.6 93.9121 57.5927C95.3746 57.5254 96.8302 57.8316 98.1417 58.4823C99.4531 59.1331 100.577 60.1071 101.408 61.3126C103.666 59.0813 106.664 57.7574 109.834 57.5927C116.924 57.5927 119.422 62.5893 119.422 68.6323V80.3174C119.422 80.4624 119.394 80.606 119.338 80.74C119.283 80.874 119.201 80.9958 119.099 81.0984C118.996 81.2009 118.875 81.2822 118.741 81.3376C118.607 81.3931 118.463 81.4215 118.318 81.4213H115.065C114.92 81.4215 114.776 81.3931 114.642 81.3376C114.508 81.2822 114.386 81.2009 114.284 81.0984C114.181 80.9958 114.1 80.874 114.045 80.74C113.989 80.606 113.961 80.4624 113.961 80.3174V68.4043C113.961 64.7432 112.281 62.6517 109.137 62.6517C107.998 62.6939 106.88 62.9682 105.851 63.4579C104.822 63.9475 103.904 64.6421 103.153 65.4992C103.291 66.4224 103.349 67.3558 103.327 68.2891V80.3174C103.317 80.6071 103.198 80.8824 102.993 81.0874C102.788 81.2924 102.513 81.4118 102.223 81.4213H99.144C98.9989 81.4215 98.8551 81.3931 98.7211 81.3377C98.587 81.2822 98.4652 81.201 98.3626 81.0984C98.2599 80.9959 98.1785 80.8741 98.1229 80.7401C98.0674 80.6061 98.0388 80.4625 98.0388 80.3174V68.4043C98.0388 64.6844 96.3588 62.6517 93.0997 62.6517C91.9163 62.6638 90.758 62.9938 89.7459 63.6073C88.7338 64.2208 87.9054 65.0952 87.3472 66.1388V80.3174C87.3374 80.607 87.2178 80.8821 87.0129 81.0871C86.808 81.292 86.5329 81.4115 86.2432 81.4213H82.989C82.6994 81.4115 82.4243 81.292 82.2193 81.0871C82.0144 80.8821 81.8949 80.607 81.8851 80.3174L81.8838 59.2775Z" fill="#002D33"/>
<path d="M37.7892 50.5898C37.7773 50.1462 37.8539 49.7046 38.0146 49.291C38.1754 48.8773 38.4171 48.4999 38.7255 48.1807C39.0339 47.8616 39.4028 47.6072 39.8107 47.4324C40.2186 47.2576 40.6573 47.1659 41.1011 47.1628C41.5528 47.1543 42.0017 47.2359 42.4215 47.4029C42.8413 47.5699 43.2236 47.8189 43.5461 48.1354C43.8685 48.4518 44.1247 48.8294 44.2995 49.246C44.4744 49.6626 44.5644 50.1098 44.5644 50.5616C44.5644 51.0134 44.4744 51.4607 44.2995 51.8773C44.1247 52.2939 43.8685 52.6714 43.5461 52.9879C43.2236 53.3043 42.8413 53.5533 42.4215 53.7203C42.0017 53.8873 41.5528 53.969 41.1011 53.9605C40.6617 53.9589 40.2269 53.8703 39.8219 53.6996C39.417 53.5289 39.0499 53.2797 38.7419 52.9662C38.4339 52.6527 38.1911 52.2813 38.0276 51.8734C37.864 51.4655 37.7831 51.0292 37.7892 50.5898Z" fill="#002D33"/>
<path d="M9 47.0896C9.01147 46.8018 9.13189 46.5291 9.33687 46.3268C9.54184 46.1245 9.81606 46.0077 10.104 46H13.4746C13.7625 46.0077 14.0367 46.1245 14.2417 46.3268C14.4467 46.5291 14.5671 46.8018 14.5786 47.0896V59.1911C16.3338 58.3957 18.2329 57.967 20.1595 57.9311C26.6093 57.9311 31.6071 63.2601 31.6071 69.9654C31.6047 76.5544 26.8973 81.9985 20.7379 81.9985C19.3567 81.9784 17.9931 81.6843 16.7263 81.1333C15.4596 80.5823 14.3147 79.7853 13.3582 78.7887L12.8938 80.4506C12.7186 81.0242 12.3707 81.425 11.8475 81.425H10.104C9.81626 81.4173 9.54221 81.3006 9.33726 81.0986C9.13231 80.8965 9.01176 80.6242 9 80.3366V47.0896ZM20.0396 77.0691C23.7594 77.0691 26.1989 73.8029 26.1989 69.9642C26.2461 69.0621 26.1102 68.1598 25.7995 67.3116C25.4887 66.4634 25.0096 65.6868 24.3909 65.0286C23.7722 64.3705 23.0267 63.8443 22.1993 63.4818C21.3719 63.1193 20.4797 62.928 19.5764 62.9193C17.8039 62.905 16.0592 63.3605 14.5198 64.2393V73.6385C15.0368 74.6614 15.8252 75.5225 16.7987 76.1276C17.7722 76.7327 18.8934 77.0584 20.0396 77.0691Z" fill="#002D33"/>
</svg>
